<svg xmlns="http://www.w3.org/2000/svg" viewBox="0 0 512 512">
  <path d="M308.309 2.654c-9.183 0-17.435 6.482-21.65 13.858l-.173.302-12.945 25.895a214.011 214.011 0 0 0-17.541-.72A214.011 214.011 0 0 0 41.988 256a214.011 214.011 0 0 0 53.9 142.006L63.01 463.762l-.23.615c-1.381 3.68-2.417 7.104-2.417 11.408 0 9.181 6.48 17.439 13.858 21.654l.302.174L92.7 506.7l.617.23c3.685 1.383 7.113 2.417 11.409 2.417 9.18 0 17.438-6.48 21.654-13.858l.172-.299 25.94-51.875A214.011 214.011 0 0 0 256 470.012 214.011 214.011 0 0 0 470.012 256a214.011 214.011 0 0 0-126.27-195.197l6.281-12.565.231-.615c1.38-3.679 2.42-7.104 2.42-11.408 0-9.185-6.487-17.439-13.865-21.654l-.3-.174-17.915-8.957-.34-.147c-3.712-1.59-7.705-2.629-11.945-2.629z" style="display:inline;fill:#000;fill-opacity:1;stroke:none;stroke-opacity:1"/>
  <path d="M246.824-56.58c-2.344 0-4.296 1.368-5.859 4.102L216.692-3.931l-17.837-13.391c-1.367-1.172-3.026-1.758-4.979-1.758-2.149 0-3.907.977-5.275 2.93l-5.566 6.738c-1.367 1.953-2.05 3.613-2.05 4.98 0 1.758 1.073 3.516 3.222 5.274l21.866 16.465-86.104 172.207c-.586 1.562-.88 2.832-.88 3.808 0 2.344 1.369 4.297 4.103 5.86l9.375 4.687c1.562.586 2.831.879 3.808.879 2.344 0 4.297-1.367 5.86-4.1l84.057-168.116 55.181 41.552-97.266 73.242c-2.149 1.758-3.222 3.516-3.222 5.274 0 1.367.683 3.027 2.05 4.98l5.566 6.737c1.368 1.954 3.223 2.931 5.567 2.931 1.953 0 3.613-.586 4.98-1.758l94.923-71.484c3.71-2.735 6.64-5.86 8.788-9.376 2.149-3.515 3.224-7.03 3.224-10.546 0-3.515-1.075-7.032-3.224-10.547-2.148-3.516-5.078-6.64-8.788-9.375l-57.144-42.901 26.304-52.607c.586-1.562.88-2.831.88-3.808 0-2.344-1.368-4.297-4.103-5.86l-9.375-4.687c-1.367-.586-2.637-.879-3.81-.879z" style="display:inline;mix-blend-mode:normal;fill:#fff;fill-opacity:1;stroke:none;stroke-width:13.563;stroke-dasharray:none;stroke-opacity:1;paint-order:stroke fill markers" transform="matrix(1.84325 0 0 1.84325 -146.648 119.445)"/>
</svg>
