<svg xmlns="http://www.w3.org/2000/svg" viewBox="0 0 512 512">
  <path d="M308.309 2.654c-9.183 0-17.435 6.482-21.65 13.858l-.173.302-12.945 25.895a214.011 214.011 0 0 0-17.541-.72A214.011 214.011 0 0 0 41.988 256a214.011 214.011 0 0 0 53.9 142.006L63.01 463.762l-.23.615c-1.381 3.68-2.417 7.104-2.417 11.408 0 9.181 6.48 17.439 13.858 21.654l.302.174L92.7 506.7l.617.23c3.685 1.383 7.113 2.417 11.409 2.417 9.179 0 17.438-6.48 21.654-13.858l.172-.299 25.94-51.875A214.011 214.011 0 0 0 256 470.012 214.011 214.011 0 0 0 470.012 256a214.011 214.011 0 0 0-126.27-195.197l6.281-12.565.23-.615c1.38-3.679 2.42-7.104 2.42-11.408 0-9.185-6.486-17.439-13.864-21.654l-.3-.174-17.915-8.957-.34-.147c-3.712-1.59-7.705-2.629-11.945-2.629Zm0 12.5c2.16 0 4.5.54 7.021 1.62l17.281 8.64c5.041 2.88 7.56 6.48 7.56 10.8 0 1.801-.54 4.14-1.62 7.02l-48.485 96.967 105.33 79.078c6.84 5.04 12.24 10.8 16.2 17.28 3.96 6.48 5.941 12.96 5.941 19.441 0 6.48-1.98 12.96-5.941 19.44-3.96 6.48-9.36 12.24-16.2 17.28L220.432 424.485c-2.52 2.16-5.58 3.24-9.18 3.24-4.32 0-7.741-1.801-10.262-5.402l-10.26-12.418c-2.52-3.6-3.779-6.66-3.779-9.18 0-3.24 1.98-6.482 5.94-9.722L372.176 256l-101.713-76.59-154.938 309.877c-2.88 5.04-6.48 7.559-10.8 7.559-1.8 0-4.14-.541-7.02-1.621l-17.28-8.64c-5.04-2.88-7.562-6.48-7.562-10.8 0-1.8.541-4.14 1.621-7.02l158.711-317.42-40.304-30.349c-3.96-3.24-5.94-6.48-5.94-9.72 0-2.52 1.26-5.58 3.78-9.18l10.26-12.42c2.52-3.6 5.761-5.4 9.722-5.4 3.6 0 6.657 1.08 9.178 3.24l32.877 24.683 44.742-89.484c2.88-5.04 6.48-7.56 10.799-7.56z" style="display:inline;fill:#000;fill-opacity:1;stroke:none;stroke-opacity:1"/>
</svg>
