<?xml version="1.0" standalone="no"?>
<!DOCTYPE svg PUBLIC "-//W3C//DTD SVG 20010904//EN" "http://www.w3.org/TR/2001/REC-SVG-20010904/DTD/svg10.dtd">
<svg version="1.0" xmlns="http://www.w3.org/2000/svg" width="700.000000pt" height="700.000000pt"
    viewBox="0 0 700.000000 700.000000" preserveAspectRatio="xMidYMid meet">
    <g transform="translate(0.000000,700.000000) scale(0.100000,-0.100000)" fill="#000000" stroke="none">
        <path d="M3750 6865 l0 -125 130 0 130 0 0 -67 c0 -38 3 -152 7 -255 l6 -188
-136 0 -137 0 0 -135 0 -135 -125 0 -125 0 0 135 0 136 -132 -3 -133 -3 -3
-132 -3 -133 -124 0 -124 0 -3 133 -3 132 -132 3 -133 3 0 -136 0 -135 -125 0
-125 0 0 130 0 130 -130 0 -130 0 0 -260 0 -260 -135 0 -135 0 0 130 0 130
-124 0 -124 0 -7 -260 -7 -260 -254 0 -254 0 0 130 0 130 -130 0 -129 0 -3
-132 -3 -133 -127 -3 -128 -3 0 -124 0 -125 -103 0 -104 0 -27 -54 c-23 -46
-27 -63 -24 -127 l3 -74 123 -3 122 -3 0 -129 0 -130 -125 0 -125 0 0 -130 0
-130 -130 0 -129 0 -10 -37 c-6 -21 -17 -69 -26 -108 -8 -38 -18 -80 -20 -92
-5 -20 -1 -23 25 -23 l30 0 0 -124 0 -125 -47 -3 -48 -3 -7 -60 c-14 -115 -19
-476 -8 -603 39 -463 146 -852 345 -1257 97 -197 227 -413 336 -557 79 -104
290 -346 360 -414 430 -411 956 -714 1508 -869 112 -31 408 -89 541 -107 160
-20 679 -17 840 5 730 102 1362 393 1906 878 523 465 910 1127 1073 1835 12
50 21 97 21 103 0 6 -16 11 -35 11 l-35 0 0 125 0 125 54 0 53 0 7 48 c14 101
17 385 7 547 -25 377 -93 704 -216 1035 -58 155 -213 472 -297 605 -57 90 -66
100 -96 103 -31 3 -32 5 -32 46 0 38 -8 54 -66 130 l-67 87 -61 -3 -61 -3 -3
-127 -3 -128 -129 0 -130 0 0 260 0 260 -255 0 -254 0 -3 133 -3 132 -130 0
-130 0 -3 -132 -3 -133 -129 0 -130 0 0 129 0 129 -262 7 -261 8 6 186 c4 102
7 216 7 254 l0 67 130 0 130 0 0 -135 0 -135 125 0 125 0 0 134 c0 87 4 136
11 138 23 8 -465 168 -512 168 -5 0 -9 -38 -9 -85 l0 -85 -130 0 -130 0 0 109
0 109 -37 6 c-37 6 -210 26 -225 26 -5 0 -8 -56 -8 -125z m-1290 -1425 l0
-260 125 0 125 0 0 125 0 125 783 2 782 3 3 133 3 132 384 0 385 0 0 -390 0
-390 265 0 265 0 0 130 0 130 125 0 125 0 0 -130 0 -130 -125 0 -125 0 0 -260
0 -260 125 0 125 0 0 -260 0 -260 130 0 130 0 0 -130 0 -130 130 0 130 0 0
-130 0 -130 -780 0 -780 0 0 -125 0 -125 -257 -2 -258 -3 -3 -127 -3 -128
-514 0 -514 0 -3 -132 -3 -133 -260 0 -260 0 -3 127 -3 127 133 3 133 3 0 130
0 130 -257 3 -258 2 0 125 0 125 -520 0 -520 0 0 130 0 130 -130 0 -130 0 0
-130 0 -130 -260 0 -260 0 0 130 0 130 260 0 260 0 0 130 0 130 130 0 130 0 0
390 0 390 -130 0 -130 0 0 -130 0 -130 -130 0 -130 0 0 130 0 130 130 0 130 0
0 260 0 260 130 0 130 0 0 -260 0 -260 130 0 130 0 0 130 0 130 260 0 260 0 0
135 0 135 -130 0 -130 0 0 120 0 119 128 3 127 3 3 133 3 132 129 0 130 0 0
-260z m4408 -1167 l3 -123 -126 0 -125 0 0 125 0 126 123 -3 122 -3 3 -122z
m-5978 -258 l0 -125 -125 0 -125 0 0 125 0 125 125 0 125 0 0 -125z m5460 -5
l0 -131 -127 3 -128 3 -3 128 -3 127 131 0 130 0 0 -130z m260 -775 l0 -125
-125 0 -125 0 0 125 0 125 125 0 125 0 0 -125z m-2070 -655 l0 -260 125 0 125
0 0 -125 0 -125 -125 0 -125 0 0 125 0 125 -130 0 -130 0 0 260 0 260 130 0
130 0 0 -260z m-2342 -907 l-3 -128 -127 -3 -128 -3 0 131 0 130 130 0 131 0
-3 -127z m2852 -518 l0 -125 -125 0 -125 0 0 125 0 125 125 0 125 0 0 -125z
m-3120 -260 l0 -125 -125 0 -125 0 0 125 0 125 125 0 125 0 0 -125z" />
        <path d="M2885 6944 c-38 -7 -94 -19 -122 -25 l-53 -10 0 -85 0 -84 -125 0
-125 0 0 50 c0 28 -2 50 -4 50 -31 0 -407 -151 -481 -193 l-40 -23 0 -74 0
-75 133 -3 132 -3 0 136 0 135 130 0 130 0 0 -135 0 -135 125 0 125 0 0 135 0
135 135 0 135 0 0 110 c0 82 -3 110 -12 109 -7 0 -44 -7 -83 -15z" />
        <path d="M3240 6605 l0 -135 -130 0 -130 0 0 -120 0 -120 130 0 130 0 0 120 0
120 130 0 130 0 0 135 0 135 -130 0 -130 0 0 -135z" />
        <path d="M1360 6267 l-55 -42 54 -3 c29 -2 55 -1 58 1 2 3 3 23 1 46 l-3 40
-55 -42z" />
    </g>
</svg>